<mxfile host="app.diagrams.net" modified="2023-06-29T23:09:38.869Z" agent="Mozilla/5.0 (Windows NT 10.0; Win64; x64) AppleWebKit/537.36 (KHTML, like Gecko) Chrome/114.0.0.0 Safari/537.36" etag="lkihUwmX8NrKFRWXKA6p" version="21.5.2" type="github">
  <diagram name="Página-1" id="oJO461ESgxMl5yldSxl7">
    <mxGraphModel dx="880" dy="484" grid="1" gridSize="10" guides="1" tooltips="1" connect="1" arrows="1" fold="1" page="1" pageScale="1" pageWidth="827" pageHeight="1169" math="0" shadow="0">
      <root>
        <mxCell id="0" />
        <mxCell id="1" parent="0" />
        <mxCell id="FF92Bi_vO5rWe3Y9IYeU-1" value="&lt;b id=&quot;docs-internal-guid-612375e4-7fff-f534-00d8-93ea4280d572&quot; style=&quot;font-weight:normal;&quot;&gt;&lt;span style=&quot;font-size: 11pt; font-family: Arial; color: rgb(0, 0, 0); background-color: transparent; font-weight: 400; font-style: normal; font-variant: normal; text-decoration: none; vertical-align: baseline;&quot;&gt;proveedor&lt;/span&gt;&lt;/b&gt;" style="rounded=0;whiteSpace=wrap;html=1;fillColor=#1ba1e2;fontColor=#ffffff;strokeColor=#006EAF;" vertex="1" parent="1">
          <mxGeometry x="610" y="40" width="120" height="60" as="geometry" />
        </mxCell>
        <mxCell id="FF92Bi_vO5rWe3Y9IYeU-2" value="&lt;font style=&quot;font-size: 14px;&quot; color=&quot;#000000&quot;&gt;cliente&lt;/font&gt;" style="rounded=0;whiteSpace=wrap;html=1;fillColor=#1ba1e2;fontColor=#ffffff;strokeColor=#006EAF;" vertex="1" parent="1">
          <mxGeometry x="70" y="40" width="120" height="60" as="geometry" />
        </mxCell>
        <mxCell id="FF92Bi_vO5rWe3Y9IYeU-4" value="&lt;b id=&quot;docs-internal-guid-612375e4-7fff-f534-00d8-93ea4280d572&quot; style=&quot;font-weight:normal;&quot;&gt;&lt;span style=&quot;font-size: 11pt; font-family: Arial; color: rgb(0, 0, 0); background-color: transparent; font-weight: 400; font-style: normal; font-variant: normal; text-decoration: none; vertical-align: baseline;&quot;&gt;&amp;nbsp;producto&lt;/span&gt;&lt;/b&gt;" style="rounded=0;whiteSpace=wrap;html=1;fillColor=#1ba1e2;fontColor=#ffffff;strokeColor=#006EAF;" vertex="1" parent="1">
          <mxGeometry x="595" y="330" width="150" height="60" as="geometry" />
        </mxCell>
        <mxCell id="FF92Bi_vO5rWe3Y9IYeU-5" value="&lt;b id=&quot;docs-internal-guid-612375e4-7fff-f534-00d8-93ea4280d572&quot; style=&quot;font-weight:normal;&quot;&gt;&lt;span style=&quot;font-size: 11pt; font-family: Arial; color: rgb(0, 0, 0); background-color: transparent; font-weight: 400; font-style: normal; font-variant: normal; text-decoration: none; vertical-align: baseline;&quot;&gt;&amp;nbsp;venta&lt;/span&gt;&lt;/b&gt;" style="rounded=0;whiteSpace=wrap;html=1;fillColor=#1ba1e2;fontColor=#ffffff;strokeColor=#006EAF;" vertex="1" parent="1">
          <mxGeometry x="80" y="330" width="100" height="60" as="geometry" />
        </mxCell>
        <mxCell id="FF92Bi_vO5rWe3Y9IYeU-8" style="edgeStyle=orthogonalEdgeStyle;rounded=0;orthogonalLoop=1;jettySize=auto;html=1;exitX=0;exitY=1;exitDx=0;exitDy=0;endArrow=none;endFill=0;entryX=1.04;entryY=0.3;entryDx=0;entryDy=0;entryPerimeter=0;" edge="1" parent="1" target="FF92Bi_vO5rWe3Y9IYeU-11">
          <mxGeometry relative="1" as="geometry">
            <mxPoint x="609" y="120" as="targetPoint" />
            <mxPoint x="609" y="60" as="sourcePoint" />
          </mxGeometry>
        </mxCell>
        <mxCell id="FF92Bi_vO5rWe3Y9IYeU-11" value="&lt;font color=&quot;#000000&quot;&gt;CUIT&lt;/font&gt;" style="ellipse;whiteSpace=wrap;html=1;fillColor=#FFFFFF;fontColor=#ffffff;strokeColor=#A50040;" vertex="1" parent="1">
          <mxGeometry x="485" y="45" width="75" height="50" as="geometry" />
        </mxCell>
        <mxCell id="FF92Bi_vO5rWe3Y9IYeU-12" value="&#xa;&lt;b id=&quot;docs-internal-guid-a38ea159-7fff-9421-8ee9-781c6fa0da8d&quot; style=&quot;font-weight:normal;&quot;&gt;&lt;span style=&quot;font-size: 11pt; font-family: Arial; color: rgb(0, 0, 0); background-color: transparent; font-weight: 400; font-style: normal; font-variant: normal; text-decoration: none; vertical-align: baseline;&quot;&gt;nombre&lt;/span&gt;&lt;/b&gt;&#xa;&#xa;" style="ellipse;whiteSpace=wrap;html=1;fillColor=#FFFFFF;fontColor=#ffffff;strokeColor=#A50040;" vertex="1" parent="1">
          <mxGeometry x="550" y="120" width="75" height="50" as="geometry" />
        </mxCell>
        <mxCell id="FF92Bi_vO5rWe3Y9IYeU-13" value="&#xa;&lt;b id=&quot;docs-internal-guid-a2be0e89-7fff-bff9-28b0-4776f87d714c&quot; style=&quot;font-weight:normal;&quot;&gt;&lt;span style=&quot;font-size: 11pt; font-family: Arial; color: rgb(0, 0, 0); background-color: transparent; font-weight: 400; font-style: normal; font-variant: normal; text-decoration: none; vertical-align: baseline;&quot;&gt;dirección&lt;/span&gt;&lt;/b&gt;&#xa;&#xa;" style="ellipse;whiteSpace=wrap;html=1;fillColor=#FFFFFF;fontColor=#ffffff;strokeColor=#A50040;" vertex="1" parent="1">
          <mxGeometry x="620" y="160" width="75" height="50" as="geometry" />
        </mxCell>
        <mxCell id="FF92Bi_vO5rWe3Y9IYeU-14" value="&#xa;&lt;b id=&quot;docs-internal-guid-7a3b23d0-7fff-d6b8-3819-b041989a6772&quot; style=&quot;font-weight:normal;&quot;&gt;&lt;span style=&quot;font-size: 11pt; font-family: Arial; color: rgb(0, 0, 0); background-color: transparent; font-weight: 400; font-style: normal; font-variant: normal; text-decoration: none; vertical-align: baseline;&quot;&gt;teléfono&lt;/span&gt;&lt;/b&gt;&#xa;&#xa;" style="ellipse;whiteSpace=wrap;html=1;fillColor=#FFFFFF;fontColor=#ffffff;strokeColor=#A50040;" vertex="1" parent="1">
          <mxGeometry x="750" y="50" width="77" height="50" as="geometry" />
        </mxCell>
        <mxCell id="FF92Bi_vO5rWe3Y9IYeU-15" value="&lt;br&gt;&lt;b id=&quot;docs-internal-guid-5c7455b6-7fff-094f-ab38-a17ed195b45f&quot; style=&quot;font-weight:normal;&quot;&gt;&lt;span style=&quot;font-size: 11pt; font-family: Arial; color: rgb(0, 0, 0); background-color: transparent; font-weight: 400; font-style: normal; font-variant: normal; text-decoration: none; vertical-align: baseline;&quot;&gt;pag_web&lt;/span&gt;&lt;/b&gt;&lt;br&gt;" style="ellipse;whiteSpace=wrap;html=1;fillColor=#FFFFFF;fontColor=#ffffff;strokeColor=#A50040;" vertex="1" parent="1">
          <mxGeometry x="710" y="130" width="75" height="50" as="geometry" />
        </mxCell>
        <mxCell id="FF92Bi_vO5rWe3Y9IYeU-16" style="edgeStyle=orthogonalEdgeStyle;rounded=0;orthogonalLoop=1;jettySize=auto;html=1;exitX=1;exitY=1;exitDx=0;exitDy=0;endArrow=none;endFill=0;entryX=1;entryY=1;entryDx=0;entryDy=0;" edge="1" parent="1" source="FF92Bi_vO5rWe3Y9IYeU-1" target="FF92Bi_vO5rWe3Y9IYeU-1">
          <mxGeometry relative="1" as="geometry">
            <mxPoint x="730" y="100" as="targetPoint" />
            <mxPoint x="620" y="110" as="sourcePoint" />
          </mxGeometry>
        </mxCell>
        <mxCell id="FF92Bi_vO5rWe3Y9IYeU-22" style="edgeStyle=orthogonalEdgeStyle;rounded=0;orthogonalLoop=1;jettySize=auto;html=1;exitX=0.25;exitY=1;exitDx=0;exitDy=0;endArrow=none;endFill=0;entryX=0;entryY=0;entryDx=0;entryDy=0;" edge="1" parent="1">
          <mxGeometry relative="1" as="geometry">
            <mxPoint x="640.0020519852025" y="167.20408917919087" as="targetPoint" />
            <mxPoint x="648.84" y="100" as="sourcePoint" />
            <Array as="points">
              <mxPoint x="648.84" y="167" />
            </Array>
          </mxGeometry>
        </mxCell>
        <mxCell id="FF92Bi_vO5rWe3Y9IYeU-29" style="edgeStyle=orthogonalEdgeStyle;rounded=0;orthogonalLoop=1;jettySize=auto;html=1;exitX=1;exitY=0.5;exitDx=0;exitDy=0;endArrow=none;endFill=0;entryX=0;entryY=0.5;entryDx=0;entryDy=0;" edge="1" parent="1" source="FF92Bi_vO5rWe3Y9IYeU-1" target="FF92Bi_vO5rWe3Y9IYeU-14">
          <mxGeometry relative="1" as="geometry">
            <mxPoint x="716" y="187" as="targetPoint" />
            <mxPoint x="701" y="113" as="sourcePoint" />
            <Array as="points">
              <mxPoint x="750" y="70" />
            </Array>
          </mxGeometry>
        </mxCell>
        <mxCell id="FF92Bi_vO5rWe3Y9IYeU-31" style="edgeStyle=orthogonalEdgeStyle;rounded=0;orthogonalLoop=1;jettySize=auto;html=1;exitX=0.25;exitY=1;exitDx=0;exitDy=0;endArrow=none;endFill=0;entryX=1;entryY=0;entryDx=0;entryDy=0;" edge="1" parent="1" target="FF92Bi_vO5rWe3Y9IYeU-12">
          <mxGeometry relative="1" as="geometry">
            <mxPoint x="610" y="167" as="targetPoint" />
            <mxPoint x="619" y="100" as="sourcePoint" />
            <Array as="points">
              <mxPoint x="614" y="100" />
            </Array>
          </mxGeometry>
        </mxCell>
        <mxCell id="FF92Bi_vO5rWe3Y9IYeU-33" style="edgeStyle=orthogonalEdgeStyle;rounded=0;orthogonalLoop=1;jettySize=auto;html=1;exitX=0.25;exitY=1;exitDx=0;exitDy=0;endArrow=none;endFill=0;entryX=0;entryY=0;entryDx=0;entryDy=0;" edge="1" parent="1" target="FF92Bi_vO5rWe3Y9IYeU-15">
          <mxGeometry relative="1" as="geometry">
            <mxPoint x="720" y="120" as="targetPoint" />
            <mxPoint x="718.84" y="100" as="sourcePoint" />
            <Array as="points">
              <mxPoint x="721" y="100" />
            </Array>
          </mxGeometry>
        </mxCell>
      </root>
    </mxGraphModel>
  </diagram>
</mxfile>
